<svg xmlns="http://www.w3.org/2000/svg" xmlns:xlink="http://www.w3.org/1999/xlink" width="2000" zoomAndPan="magnify" viewBox="0 0 1500 1499.999933" height="2000" preserveAspectRatio="xMidYMid meet" version="1.0"><defs><g/><clipPath id="fdcecccfad"><path d="M 12.578125 12.929688 L 798.71875 12.929688 L 798.71875 799.070312 L 12.578125 799.070312 Z M 12.578125 12.929688 " clip-rule="nonzero"/></clipPath><clipPath id="2f3e382f4f"><path d="M 405.648438 12.929688 C 188.558594 12.929688 12.578125 188.914062 12.578125 406 C 12.578125 623.085938 188.558594 799.070312 405.648438 799.070312 C 622.734375 799.070312 798.71875 623.085938 798.71875 406 C 798.71875 188.914062 622.734375 12.929688 405.648438 12.929688 Z M 405.648438 12.929688 " clip-rule="nonzero"/></clipPath><clipPath id="34ea1e5295"><path d="M 0.578125 0.929688 L 786.71875 0.929688 L 786.71875 787.070312 L 0.578125 787.070312 Z M 0.578125 0.929688 " clip-rule="nonzero"/></clipPath><clipPath id="245f307bc4"><path d="M 393.648438 0.929688 C 176.558594 0.929688 0.578125 176.914062 0.578125 394 C 0.578125 611.085938 176.558594 787.070312 393.648438 787.070312 C 610.734375 787.070312 786.71875 611.085938 786.71875 394 C 786.71875 176.914062 610.734375 0.929688 393.648438 0.929688 Z M 393.648438 0.929688 " clip-rule="nonzero"/></clipPath><clipPath id="0bcc982942"><rect x="0" width="787" y="0" height="788"/></clipPath><clipPath id="a6b4c11eef"><path d="M 12.578125 12.929688 L 798.496094 12.929688 L 798.496094 798.847656 L 12.578125 798.847656 Z M 12.578125 12.929688 " clip-rule="nonzero"/></clipPath><clipPath id="9e741e0936"><path d="M 405.644531 12.929688 C 188.558594 12.929688 12.578125 188.910156 12.578125 405.996094 C 12.578125 623.082031 188.558594 799.0625 405.644531 799.0625 C 622.726562 799.0625 798.710938 623.082031 798.710938 405.996094 C 798.710938 188.910156 622.726562 12.929688 405.644531 12.929688 Z M 405.644531 12.929688 " clip-rule="nonzero"/></clipPath><clipPath id="502dd4b9e5"><rect x="0" width="305" y="0" height="619"/></clipPath><clipPath id="99b63b57dd"><rect x="0" width="295" y="0" height="75"/></clipPath><clipPath id="333ed96225"><rect x="0" width="812" y="0" height="812"/></clipPath></defs><g transform="matrix(1, 0, 0, 1, 403, 344)"><g clip-path="url(#333ed96225)"><g clip-path="url(#fdcecccfad)"><g clip-path="url(#2f3e382f4f)"><g transform="matrix(1, 0, 0, 1, 12, 12)"><g clip-path="url(#0bcc982942)"><g clip-path="url(#34ea1e5295)"><g clip-path="url(#245f307bc4)"><path fill="#023425" d="M 0.578125 0.929688 L 786.71875 0.929688 L 786.71875 787.070312 L 0.578125 787.070312 Z M 0.578125 0.929688 " fill-opacity="1" fill-rule="nonzero"/></g></g></g></g></g></g><g clip-path="url(#a6b4c11eef)"><g clip-path="url(#9e741e0936)"><path stroke-linecap="butt" transform="matrix(1.147325, 0, 0, 1.147325, 12.576843, 12.929783)" fill="none" stroke-linejoin="miter" d="M 342.594748 -0.0000835303 C 153.384329 -0.0000835303 0.00111725 153.383128 0.00111725 342.593547 C 0.00111725 531.803966 153.384329 685.187178 342.594748 685.187178 C 531.801762 685.187178 685.188379 531.803966 685.188379 342.593547 C 685.188379 153.383128 531.801762 -0.0000835303 342.594748 -0.0000835303 Z M 342.594748 -0.0000835303 " stroke="#023425" stroke-width="3.922164" stroke-opacity="1" stroke-miterlimit="4"/></g></g><g fill="#fdfef9" fill-opacity="1"><g transform="translate(65.980099, 626.858033)"><g><path d="M 51.46875 0 L 51.46875 -443.3125 L 325.484375 -443.3125 L 325.484375 -393.921875 L 107.40625 -393.921875 L 107.40625 -249.328125 L 310.3125 -249.328125 L 310.3125 -199.640625 L 107.40625 -199.640625 L 107.40625 -49.390625 L 327.578125 -49.390625 L 327.578125 0 Z M 51.46875 0 "/></g></g></g><g fill="#fdfef9" fill-opacity="1"><g transform="translate(322.899065, 626.858033)"><g><path d="M 233.5625 6.25 C 194.082031 6.25 159.414062 -3.117188 129.5625 -21.859375 C 99.71875 -40.609375 76.363281 -66.988281 59.5 -101 C 42.644531 -135.019531 34.21875 -175.140625 34.21875 -221.359375 C 34.21875 -267.972656 42.597656 -308.285156 59.359375 -342.296875 C 76.117188 -376.316406 99.320312 -402.695312 128.96875 -421.4375 C 158.625 -440.1875 192.59375 -449.5625 230.875 -449.5625 C 254.28125 -449.5625 276.195312 -446.039062 296.625 -439 C 317.0625 -431.957031 335.3125 -421.9375 351.375 -408.9375 C 367.4375 -395.945312 380.820312 -380.523438 391.53125 -362.671875 C 402.25 -344.828125 409.492188 -325.09375 413.265625 -303.46875 L 356.140625 -303.46875 C 351.773438 -317.75 345.773438 -330.691406 338.140625 -342.296875 C 330.503906 -353.898438 321.378906 -363.816406 310.765625 -372.046875 C 300.148438 -380.285156 288.148438 -386.632812 274.765625 -391.09375 C 261.378906 -395.550781 246.75 -397.78125 230.875 -397.78125 C 204.101562 -397.78125 180.003906 -390.890625 158.578125 -377.109375 C 137.160156 -363.328125 120.203125 -343.296875 107.703125 -317.015625 C 95.203125 -290.734375 88.953125 -258.847656 88.953125 -221.359375 C 88.953125 -184.265625 95.25 -152.625 107.84375 -126.4375 C 120.445312 -100.257812 137.609375 -80.226562 159.328125 -66.34375 C 181.046875 -52.457031 205.789062 -45.515625 233.5625 -45.515625 C 258.550781 -45.515625 280.664062 -50.867188 299.90625 -61.578125 C 319.144531 -72.296875 334.265625 -87.472656 345.265625 -107.109375 C 356.273438 -126.742188 361.78125 -149.851562 361.78125 -176.4375 L 378.75 -173.453125 L 246.640625 -173.453125 L 246.640625 -222.546875 L 416.53125 -222.546875 L 416.53125 -174.34375 C 416.53125 -138.050781 408.59375 -106.363281 392.71875 -79.28125 C 376.851562 -52.207031 355.1875 -31.179688 327.71875 -16.203125 C 300.25 -1.234375 268.863281 6.25 233.5625 6.25 Z M 233.5625 6.25 "/></g></g></g><g transform="matrix(1, 0, 0, 1, 236, 97)"><g clip-path="url(#502dd4b9e5)"><g fill="#fdfef9" fill-opacity="1"><g transform="translate(1.485104, 495.254771)"><g><path d="M 162.609375 6.46875 C 135.546875 6.46875 112.007812 1.945312 92 -7.09375 C 72 -16.144531 56.4375 -28.765625 45.3125 -44.953125 C 34.195312 -61.140625 28.054688 -80.1875 26.890625 -102.09375 L 74.703125 -102.09375 C 75.703125 -87.320312 80.1875 -74.992188 88.15625 -65.109375 C 96.125 -55.234375 106.625 -47.847656 119.65625 -42.953125 C 132.6875 -38.054688 147.003906 -35.609375 162.609375 -35.609375 C 179.710938 -35.609375 194.945312 -38.347656 208.3125 -43.828125 C 221.675781 -49.304688 232.21875 -56.984375 239.9375 -66.859375 C 247.65625 -76.742188 251.515625 -88.242188 251.515625 -101.359375 C 251.515625 -112.972656 248.359375 -122.554688 242.046875 -130.109375 C 235.742188 -137.671875 227.070312 -143.941406 216.03125 -148.921875 C 204.988281 -153.898438 192.328125 -158.296875 178.046875 -162.109375 L 133.96875 -174.3125 C 102.257812 -182.945312 78.101562 -195.109375 61.5 -210.796875 C 44.90625 -226.484375 36.609375 -246.695312 36.609375 -271.4375 C 36.609375 -292.519531 42.164062 -310.90625 53.28125 -326.59375 C 64.40625 -342.28125 79.597656 -354.484375 98.859375 -363.203125 C 118.117188 -371.921875 139.867188 -376.28125 164.109375 -376.28125 C 188.847656 -376.28125 210.632812 -371.878906 229.46875 -363.078125 C 248.3125 -354.273438 263.128906 -342.15625 273.921875 -326.71875 C 284.710938 -311.28125 290.441406 -293.679688 291.109375 -273.921875 L 245.28125 -273.921875 C 243.289062 -293.179688 234.742188 -308.125 219.640625 -318.75 C 204.535156 -329.375 185.523438 -334.6875 162.609375 -334.6875 C 146.671875 -334.6875 132.640625 -332.03125 120.515625 -326.71875 C 108.398438 -321.40625 98.976562 -314.179688 92.25 -305.046875 C 85.53125 -295.921875 82.171875 -285.460938 82.171875 -273.671875 C 82.171875 -261.554688 85.863281 -251.640625 93.25 -243.921875 C 100.644531 -236.203125 109.863281 -230.015625 120.90625 -225.359375 C 131.945312 -220.710938 142.941406 -216.894531 153.890625 -213.90625 L 192 -203.703125 C 203.78125 -200.710938 215.8125 -196.6875 228.09375 -191.625 C 240.382812 -186.5625 251.757812 -180.128906 262.21875 -172.328125 C 272.675781 -164.523438 281.140625 -154.8125 287.609375 -143.1875 C 294.085938 -131.5625 297.328125 -117.617188 297.328125 -101.359375 C 297.328125 -80.765625 291.972656 -62.332031 281.265625 -46.0625 C 270.554688 -29.800781 255.160156 -16.976562 235.078125 -7.59375 C 214.992188 1.78125 190.835938 6.46875 162.609375 6.46875 Z M 162.609375 6.46875 "/></g></g></g></g></g><g transform="matrix(1, 0, 0, 1, 459, 330)"><g clip-path="url(#99b63b57dd)"><g fill="#fdfef9" fill-opacity="1"><g transform="translate(2.57915, 55.897644)"><g><path d="M 34.734375 0 L 25.734375 -12.90625 C 25.359375 -12.863281 24.789062 -12.84375 24.03125 -12.84375 L 14.09375 -12.84375 L 14.09375 0 L 5.921875 0 L 5.921875 -44.046875 L 24.03125 -44.046875 C 27.851562 -44.046875 31.175781 -43.414062 34 -42.15625 C 36.832031 -40.894531 39.003906 -39.085938 40.515625 -36.734375 C 42.023438 -34.390625 42.78125 -31.601562 42.78125 -28.375 C 42.78125 -25.0625 41.972656 -22.207031 40.359375 -19.8125 C 38.742188 -17.425781 36.425781 -15.644531 33.40625 -14.46875 L 43.546875 0 Z M 34.546875 -28.375 C 34.546875 -31.1875 33.617188 -33.347656 31.765625 -34.859375 C 29.921875 -36.367188 27.21875 -37.125 23.65625 -37.125 L 14.09375 -37.125 L 14.09375 -19.5625 L 23.65625 -19.5625 C 27.21875 -19.5625 29.921875 -20.328125 31.765625 -21.859375 C 33.617188 -23.390625 34.546875 -25.5625 34.546875 -28.375 Z M 34.546875 -28.375 "/></g></g></g><g fill="#fdfef9" fill-opacity="1"><g transform="translate(60.446188, 55.897644)"><g><path d="M 38.953125 -6.859375 L 38.953125 0 L 5.921875 0 L 5.921875 -44.046875 L 38.0625 -44.046875 L 38.0625 -37.1875 L 14.09375 -37.1875 L 14.09375 -25.734375 L 35.359375 -25.734375 L 35.359375 -19 L 14.09375 -19 L 14.09375 -6.859375 Z M 38.953125 -6.859375 "/></g></g></g><g fill="#fdfef9" fill-opacity="1"><g transform="translate(114.477068, 55.897644)"><g><path d="M 34.484375 -10.1875 L 12.453125 -10.1875 L 8.109375 0 L -0.3125 0 L 19.5 -44.046875 L 27.5625 -44.046875 L 47.4375 0 L 38.890625 0 Z M 31.78125 -16.609375 L 23.46875 -35.859375 L 15.234375 -16.609375 Z M 31.78125 -16.609375 "/></g></g></g><g fill="#fdfef9" fill-opacity="1"><g transform="translate(173.476095, 55.897644)"><g><path d="M 5.921875 -44.046875 L 25.171875 -44.046875 C 29.867188 -44.046875 34.039062 -43.132812 37.6875 -41.3125 C 41.34375 -39.488281 44.175781 -36.90625 46.1875 -33.5625 C 48.195312 -30.226562 49.203125 -26.378906 49.203125 -22.015625 C 49.203125 -17.660156 48.195312 -13.8125 46.1875 -10.46875 C 44.175781 -7.132812 41.34375 -4.554688 37.6875 -2.734375 C 34.039062 -0.910156 29.867188 0 25.171875 0 L 5.921875 0 Z M 24.796875 -6.921875 C 28.023438 -6.921875 30.863281 -7.539062 33.3125 -8.78125 C 35.769531 -10.019531 37.660156 -11.78125 38.984375 -14.0625 C 40.304688 -16.351562 40.96875 -19.003906 40.96875 -22.015625 C 40.96875 -25.035156 40.304688 -27.6875 38.984375 -29.96875 C 37.660156 -32.257812 35.769531 -34.023438 33.3125 -35.265625 C 30.863281 -36.503906 28.023438 -37.125 24.796875 -37.125 L 14.09375 -37.125 L 14.09375 -6.921875 Z M 24.796875 -6.921875 "/></g></g></g><g fill="#fdfef9" fill-opacity="1"><g transform="translate(237.317504, 55.897644)"><g><path d="M 24.921875 -15.546875 L 24.921875 0 L 16.734375 0 L 16.734375 -15.421875 L -0.5625 -44.046875 L 8.1875 -44.046875 L 21.078125 -22.59375 L 34.109375 -44.046875 L 42.15625 -44.046875 Z M 24.921875 -15.546875 "/></g></g></g></g></g></g></g></svg>